<svg xmlns="http://www.w3.org/2000/svg" xmlns:xlink="http://www.w3.org/1999/xlink" viewBox="0 0 16 16"><defs><style>.cls-1{fill:url(#linear-gradient);}.cls-2{fill:url(#linear-gradient-2);}.cls-3{fill:url(#linear-gradient-3);}.cls-4{fill:url(#linear-gradient-4);}</style><linearGradient id="linear-gradient" x1="9.31" y1="24.98" x2="9.31" y2="-0.97" gradientUnits="userSpaceOnUse"><stop offset="0" stop-color="aqua"/><stop offset="0.15" stop-color="#0df"/><stop offset="0.46" stop-color="#0087ff"/><stop offset="0.92" stop-color="blue"/></linearGradient><linearGradient id="linear-gradient-2" x1="3.61" y1="361.36" x2="13.67" y2="350.67" gradientTransform="matrix(1, 0, 0, -1, 0, 364.71)" gradientUnits="userSpaceOnUse"><stop offset="0" stop-color="#3f9de9"/><stop offset="0.17" stop-color="#3ba3ea"/><stop offset="0.4" stop-color="#30b5ee"/><stop offset="0.66" stop-color="#1dd2f5"/><stop offset="0.95" stop-color="#03fafe"/><stop offset="0.98" stop-color="aqua"/></linearGradient><linearGradient id="linear-gradient-3" x1="2824.23" y1="361.36" x2="2834.29" y2="350.67" gradientTransform="translate(2836.68 364.71) rotate(180)" gradientUnits="userSpaceOnUse"><stop offset="0" stop-color="aqua"/><stop offset="0.09" stop-color="#00f8ff"/><stop offset="0.22" stop-color="#00e3ff"/><stop offset="0.38" stop-color="#00c1ff"/><stop offset="0.56" stop-color="#0093ff"/><stop offset="0.75" stop-color="#0057ff"/><stop offset="0.96" stop-color="#000fff"/><stop offset="1" stop-color="blue"/></linearGradient><linearGradient id="linear-gradient-4" x1="2824.3" y1="12.66" x2="2834.35" y2="1.97" gradientTransform="matrix(-1, 0, 0, 1, 2836.68, 0)" gradientUnits="userSpaceOnUse"><stop offset="0" stop-color="#3f9de9"/><stop offset="0.46" stop-color="#20cdf4"/><stop offset="0.98" stop-color="aqua"/></linearGradient></defs><g id="Objects"><path class="cls-1" d="M10.88,1.35A7.28,7.28,0,0,0,3.35,2.46,9.13,9.13,0,0,1,13.69,12.54,7.27,7.27,0,0,0,10.88,1.35Z"/><path class="cls-2" d="M10.88,14.71A7.26,7.26,0,0,1,3.35,13.6,9.07,9.07,0,0,0,8.22,13a9.13,9.13,0,0,0,5.47-9.43,7.28,7.28,0,0,1-2.81,11.19Z"/><path class="cls-3" d="M5.19,14.71a7.24,7.24,0,0,0,7.52-1.11A9.07,9.07,0,0,1,7.84,13,9.13,9.13,0,0,1,2.37,3.52,7.28,7.28,0,0,0,5.19,14.71Z"/><path class="cls-4" d="M5.12,1.29A7.26,7.26,0,0,1,12.65,2.4,9.13,9.13,0,0,0,2.31,12.48,7.28,7.28,0,0,1,5.12,1.29Z"/></g></svg>