<svg xmlns="http://www.w3.org/2000/svg" xmlns:xlink="http://www.w3.org/1999/xlink" viewBox="0 0 549 147"><defs><style>.cls-1{fill:url(#linear-gradient);}.cls-2{fill:url(#linear-gradient-2);}.cls-3{fill:url(#linear-gradient-3);}.cls-4{fill:url(#linear-gradient-4);}.cls-5{font-size:105.33px;fill:blue;font-family:Montserrat-Bold, Montserrat;font-weight:700;}</style><linearGradient id="linear-gradient" x1="74.37" y1="154.81" x2="74.37" y2="20.72" gradientUnits="userSpaceOnUse"><stop offset="0" stop-color="aqua"/><stop offset="0.15" stop-color="#0df"/><stop offset="0.46" stop-color="#0087ff"/><stop offset="0.92" stop-color="blue"/></linearGradient><linearGradient id="linear-gradient-2" x1="44.9" y1="-985.29" x2="96.88" y2="-1040.51" gradientTransform="matrix(1, 0, 0, -1, 0, -942.29)" gradientUnits="userSpaceOnUse"><stop offset="0" stop-color="#3f9de9"/><stop offset="0.17" stop-color="#3ba3ea"/><stop offset="0.4" stop-color="#30b5ee"/><stop offset="0.66" stop-color="#1dd2f5"/><stop offset="0.95" stop-color="#03fafe"/><stop offset="0.98" stop-color="aqua"/></linearGradient><linearGradient id="linear-gradient-3" x1="2172.1" y1="-985.29" x2="2224.08" y2="-1040.51" gradientTransform="translate(2262.68 -942.29) rotate(180)" gradientUnits="userSpaceOnUse"><stop offset="0" stop-color="aqua"/><stop offset="0.09" stop-color="#00f8ff"/><stop offset="0.22" stop-color="#00e3ff"/><stop offset="0.38" stop-color="#00c1ff"/><stop offset="0.56" stop-color="#0093ff"/><stop offset="0.75" stop-color="#0057ff"/><stop offset="0.96" stop-color="#000fff"/><stop offset="1" stop-color="blue"/></linearGradient><linearGradient id="linear-gradient-4" x1="2172.43" y1="91.1" x2="2224.41" y2="35.88" gradientTransform="matrix(-1, 0, 0, 1, 2262.68, 0)" gradientUnits="userSpaceOnUse"><stop offset="0" stop-color="#3f9de9"/><stop offset="0.46" stop-color="#20cdf4"/><stop offset="0.98" stop-color="aqua"/></linearGradient></defs><g id="Objects"><path class="cls-1" d="M82.44,32.7a37.48,37.48,0,0,0-38.87,5.73A47.15,47.15,0,0,1,97,90.53a38,38,0,0,0,5.14-8.61A37.48,37.48,0,0,0,82.44,32.7Z"/><path class="cls-2" d="M82.44,101.72A37.46,37.46,0,0,1,43.57,96,47.15,47.15,0,0,0,97,43.9a37.5,37.5,0,0,1-14.54,57.82Z"/><path class="cls-3" d="M53,101.72A37.48,37.48,0,0,0,91.92,96,47.15,47.15,0,0,1,38.51,43.9a37,37,0,0,0-5.14,8.6A37.48,37.48,0,0,0,53,101.72Z"/><path class="cls-4" d="M52.71,32.37A37.5,37.5,0,0,1,91.59,38.1,47.15,47.15,0,0,0,38.18,90.2,37.52,37.52,0,0,1,52.71,32.37Z"/><text class="cls-5" transform="translate(117.67 104.62) scale(1.04 1)">DROSS</text></g></svg>